<svg width="64" height="64" xmlns="http://www.w3.org/2000/svg">

 <g>
  <title>background</title>
  <rect fill="none" id="canvas_background" height="402" width="582" y="-1" x="-1"/>
 </g>
 <g>
  <title>Layer 1</title>
  <path id="svg_2" d="m51,29.997c-5.155396,-0.186099 -7.720852,-0.970425 -8,8l0,1.461c-1.771,-0.633 -5.103951,-0.623555 -10.906951,-0.623555c-5.803,0 -9.321049,-0.009445 -11.093049,0.623555l0,-1.461c-0.093049,-9.249574 -3.589,-8 -8,-8c-2.757,0 -5,2.243 -5,5c0,2.025 1.208,3.838 3.079,4.617c0.56,0.235 0.921,0.778 0.921,1.383l1,4c0,3.59 2.719,6.555 6.206,6.952c-0.821,0.392 -1.393,1.224 -1.393,2.194c0,1.346 1.092,2.438 2.438,2.438c1.346,0 2.438,-1.092 2.438,-2.438c0,-0.934 -0.532,-1.736 -1.304,-2.146l21.233,0c-0.772,0.409 -1.304,1.211 -1.304,2.146c0,1.346 1.092,2.438 2.438,2.438c1.346,0 2.438,-1.092 2.438,-2.438c0,-0.97 -0.572,-1.802 -1.393,-2.194c3.484,-0.397 6.203,-3.362 6.203,-6.952l1,-4c0,-0.606 0.361,-1.148 0.921,-1.383c1.871,-0.778 3.079,-2.592 3.079,-4.617c0,-2.757 0.155396,-4.813901 -5,-5z"/>
  <path stroke="null" id="svg_3" d="m22.205334,37.706089c2.494076,-0.415358 5.74081,-0.25835 9.887617,-0.25835c4.146806,0 7.39354,-0.157007 9.887616,0.258351c1.128119,-8.609303 1.054167,-8.302282 8.091067,-8.636161l0,-5.834682c0,-9.054796 -8.049119,-16.395696 -17.978683,-16.395696c-9.928366,0 -17.977485,7.3409 -17.977485,16.395696l0,5.835775c6.94385,0.706077 7.147848,0.771253 8.089868,8.635067z"/>
  <text stroke="null" transform="matrix(2.3658573977510713,0,0,2.3658573977510713,-34.06853790105524,-18.125238054772925) " xml:space="preserve" text-anchor="start" font-family="Helvetica, Arial, sans-serif" font-size="24" id="svg_4" y="31.157931" x="23.505419" stroke-opacity="null" stroke-width="0" fill="#ffffff">*</text>
 </g>
</svg>